# xmcd
#
# Track frame offsets: 
#        150
#        18080
#        34067
#        52877
#        69225
#        83765
#        96550
#        111267
#        124287
#        138490
#
# Disc length: 2052 seconds
#
# Revision: 0
# Processed by: cddbd v1.5.1PL0 Copyright (c) Steve Scherf et al.
# Submitted via: ExactAudioCopy v0.95a5
#
DISCID=8108020a
DTITLE=Anthony Rivera - Wish You Were Loving Me
DYEAR=1999
DGENRE=Country
TTITLE0=Wish You Were Loving Me Like That
TTITLE1=Heart Above Water
TTITLE2=I'll Take That As A Yes
TTITLE3=Gringo Loco
TTITLE4=You Kissed The Words Right Off My Lips
TTITLE5=Dear One
TTITLE6=What She Don't Know
TTITLE7=Jealous Heart (Celoso)
TTITLE8=Gone Is The Heartache
TTITLE9=Credit Card Heaven
EXTD=
EXTT0=
EXTT1=
EXTT2=
EXTT3=
EXTT4=
EXTT5=
EXTT6=
EXTT7=
EXTT8=
EXTT9=
PLAYORDER=
